<svg xmlns="http://www.w3.org/2000/svg" viewBox="0 0 64 64" role="img" aria-label="RightWay icon">
  <rect width="64" height="64" rx="14" fill="#ffffff"/>
  <path d="M30 7h24v22c0 10.8-6.8 20.2-17 23.8C26.8 49.2 20 39.8 20 29V13.8L30 7Z" fill="#013a72"/>
  <path d="M39.3 16.4c-6.9.2-12.7 5-14.4 11.5 3.8-3.1 8.5-4.9 13.4-5.1 3.8-.1 7.3 1.1 10.2 3.3-1.5-5.6-5.2-9.8-9.2-9.7Z" fill="#ffffff"/>
  <path d="M30.7 29.9c4.1-1.9 8.3-2.2 12.5-.8-4.8 1.7-8.3 4.5-10.4 8.4-1.7-2.2-2.4-4.8-2.1-7.6Z" fill="#ffffff"/>
  <path d="M45.5 18.3l5.4 2.7-6.6.5c.6-.9 1-1.9 1.2-3.2Z" fill="#ffffff"/>
  <path d="M14 35.5l24.5 24.5h-8.9L14 44.4v-8.9Z" fill="#d5040e"/>
  <path d="M14 24.8l35.2 35.2h-8.9L14 33.7v-8.9Z" fill="#d5040e"/>
  <path d="M14 14.1l45.9 45.9h-8.9L14 23v-8.9Z" fill="#d5040e"/>
</svg>
